<?xml version="1.0" encoding="UTF-8" standalone="no"?>
<!-- Generator: Adobe Illustrator 18.1.1, SVG Export Plug-In . SVG Version: 6.00 Build 0)  -->

<svg
   version="1.1"
   id="Capa_1"
   x="0px"
   y="0px"
   viewBox="0 0 20.234 20.234"
   style="enable-background:new 0 0 20.234 20.234;"
   xml:space="preserve"
   sodipodi:docname="icon.svg"
   inkscape:version="1.1.1 (c3084ef, 2021-09-22)"
   xmlns:inkscape="http://www.inkscape.org/namespaces/inkscape"
   xmlns:sodipodi="http://sodipodi.sourceforge.net/DTD/sodipodi-0.dtd"
   xmlns="http://www.w3.org/2000/svg"
   xmlns:svg="http://www.w3.org/2000/svg"><defs
   id="defs78" /><sodipodi:namedview
   id="namedview76"
   pagecolor="#ffffff"
   bordercolor="#666666"
   borderopacity="1.0"
   inkscape:pageshadow="2"
   inkscape:pageopacity="0.0"
   inkscape:pagecheckerboard="0"
   showgrid="false"
   inkscape:zoom="35.534251"
   inkscape:cx="10.117"
   inkscape:cy="10.454702"
   inkscape:window-width="1296"
   inkscape:window-height="969"
   inkscape:window-x="0"
   inkscape:window-y="25"
   inkscape:window-maximized="0"
   inkscape:current-layer="Capa_1" />
<g
   id="g43">
	<path
   style="fill:#030104;"
   d="M6.776,4.72h1.549v6.827H6.776V4.72z M11.751,4.669c-0.942,0-1.61,0.061-2.087,0.143v6.735h1.53   V9.106c0.143,0.02,0.324,0.031,0.527,0.031c0.911,0,1.691-0.224,2.218-0.721c0.405-0.386,0.628-0.952,0.628-1.621   c0-0.668-0.295-1.234-0.729-1.579C13.382,4.851,12.702,4.669,11.751,4.669z M11.709,7.95c-0.222,0-0.385-0.01-0.516-0.041V5.895   c0.111-0.03,0.324-0.061,0.639-0.061c0.769,0,1.205,0.375,1.205,1.002C13.037,7.535,12.53,7.95,11.709,7.95z M10.117,0   C5.523,0,1.8,3.723,1.8,8.316s8.317,11.918,8.317,11.918s8.317-7.324,8.317-11.917S14.711,0,10.117,0z M10.138,13.373   c-3.05,0-5.522-2.473-5.522-5.524c0-3.05,2.473-5.522,5.522-5.522c3.051,0,5.522,2.473,5.522,5.522   C15.66,10.899,13.188,13.373,10.138,13.373z"
   id="path41" />
</g>
<g
   id="g45">
</g>
<g
   id="g47">
</g>
<g
   id="g49">
</g>
<g
   id="g51">
</g>
<g
   id="g53">
</g>
<g
   id="g55">
</g>
<g
   id="g57">
</g>
<g
   id="g59">
</g>
<g
   id="g61">
</g>
<g
   id="g63">
</g>
<g
   id="g65">
</g>
<g
   id="g67">
</g>
<g
   id="g69">
</g>
<g
   id="g71">
</g>
<g
   id="g73">
</g>
<path
   style="fill:#999999;stroke-width:0.0281419"
   d="M 9.5682333,19.707225 C 7.5155149,17.795433 5.4801513,15.537669 4.1861596,13.73706 2.5950515,11.523011 1.8141978,9.714535 1.8153908,8.2463039 1.817068,6.1821639 2.672592,4.0907715 4.1411987,2.5606924 5.4727824,1.1733718 7.2367363,0.30074131 9.1760458,0.06994627 9.6036828,0.0190537 10.538698,0.01172783 10.947185,0.05606936 c 1.748094,0.18975707 3.311848,0.87041158 4.633289,2.01672944 1.423848,1.2351533 2.411356,3.0041522 2.723181,4.8782413 0.267511,1.6077654 0.07757,2.6991012 -0.759176,4.3619889 -1.036983,2.060819 -2.93863,4.487674 -5.612329,7.162371 -0.750178,0.750458 -1.749502,1.701708 -1.810181,1.723099 -0.01047,0.0037 -0.2596532,-0.217381 -0.5537357,-0.491274 z m 0.9879137,-6.340866 c 1.090498,-0.08765 2.074979,-0.460321 2.930919,-1.109487 1.107827,-0.840202 1.839939,-2.042238 2.108896,-3.4625399 0.06811,-0.3596736 0.08175,-1.3091223 0.02446,-1.7025827 C 15.441287,5.8614263 14.907501,4.7901717 14.042878,3.9257738 12.56416,2.4474387 10.37967,1.9384828 8.3745582,2.6051335 7.3357385,2.9505156 6.369549,3.6437254 5.717367,4.5115821 4.3254977,6.3637385 4.2333982,8.9211658 5.4889127,10.855317 c 0.9318776,1.43558 2.5073657,2.381596 4.1796373,2.509701 0.432862,0.03316 0.490631,0.03325 0.887597,0.0013 z"
   id="path190" /><path
   style="fill:#999999;stroke-width:0.0281419"
   d="M 6.7962598,8.1329983 V 4.7278329 H 7.5560901 8.3159204 V 8.1329983 11.538164 H 7.5560901 6.7962598 Z"
   id="path229" /><path
   style="fill:#999999;stroke-width:0.0281419"
   d="M 9.6667298,8.1788929 V 4.819622 L 9.9129711,4.788239 C 10.688004,4.689463 12.014268,4.6562927 12.480916,4.724015 c 0.924705,0.1341973 1.508006,0.4853852 1.825965,1.0993579 0.209019,0.4036127 0.278611,0.7838469 0.227866,1.2450062 -0.05774,0.524693 -0.22654,0.9179924 -0.533868,1.2438693 C 13.468515,8.8767438 12.66287,9.143259 11.578823,9.1134883 L 11.18639,9.1027109 v 1.2177261 1.217727 H 10.42656 9.6667298 Z M 12.283923,7.8814106 c 0.526284,-0.1759592 0.787024,-0.5655957 0.753794,-1.1264324 -0.02891,-0.487944 -0.330225,-0.8062265 -0.856967,-0.9052228 -0.169109,-0.031783 -0.854602,-0.01877 -0.945111,0.01794 -0.04563,0.018509 -0.04925,0.095031 -0.04925,1.0423592 v 1.022384 l 0.09146,0.013212 c 0.0503,0.00727 0.256091,0.00955 0.457306,0.00506 0.284661,-0.00634 0.406436,-0.021718 0.548766,-0.069306 z"
   id="path268" /></svg>
