<?xml version="1.0" encoding="UTF-8" standalone="no"?>
<!-- Generator: Adobe Illustrator 18.1.1, SVG Export Plug-In . SVG Version: 6.00 Build 0)  -->

<svg
   version="1.1"
   id="Capa_1"
   x="0px"
   y="0px"
   viewBox="0 0 20.234 20.234"
   style="enable-background:new 0 0 20.234 20.234;"
   xml:space="preserve"
   sodipodi:docname="icon-mask.svg"
   inkscape:version="1.1.1 (c3084ef, 2021-09-22)"
   xmlns:inkscape="http://www.inkscape.org/namespaces/inkscape"
   xmlns:sodipodi="http://sodipodi.sourceforge.net/DTD/sodipodi-0.dtd"
   xmlns="http://www.w3.org/2000/svg"
   xmlns:svg="http://www.w3.org/2000/svg"><defs
   id="defs39" /><sodipodi:namedview
   id="namedview37"
   pagecolor="#ffffff"
   bordercolor="#666666"
   borderopacity="1.0"
   inkscape:pageshadow="2"
   inkscape:pageopacity="0.0"
   inkscape:pagecheckerboard="0"
   showgrid="false"
   inkscape:zoom="35.534251"
   inkscape:cx="10.117"
   inkscape:cy="10.454702"
   inkscape:window-width="1920"
   inkscape:window-height="1027"
   inkscape:window-x="0"
   inkscape:window-y="25"
   inkscape:window-maximized="1"
   inkscape:current-layer="Capa_1" />
<g
   id="g4"
   style="fill:#808080">
	<path
   style="fill:#808080"
   d="M6.776,4.72h1.549v6.827H6.776V4.72z M11.751,4.669c-0.942,0-1.61,0.061-2.087,0.143v6.735h1.53   V9.106c0.143,0.02,0.324,0.031,0.527,0.031c0.911,0,1.691-0.224,2.218-0.721c0.405-0.386,0.628-0.952,0.628-1.621   c0-0.668-0.295-1.234-0.729-1.579C13.382,4.851,12.702,4.669,11.751,4.669z M11.709,7.95c-0.222,0-0.385-0.01-0.516-0.041V5.895   c0.111-0.03,0.324-0.061,0.639-0.061c0.769,0,1.205,0.375,1.205,1.002C13.037,7.535,12.53,7.95,11.709,7.95z M10.117,0   C5.523,0,1.8,3.723,1.8,8.316s8.317,11.918,8.317,11.918s8.317-7.324,8.317-11.917S14.711,0,10.117,0z M10.138,13.373   c-3.05,0-5.522-2.473-5.522-5.524c0-3.05,2.473-5.522,5.522-5.522c3.051,0,5.522,2.473,5.522,5.522   C15.66,10.899,13.188,13.373,10.138,13.373z"
   id="path2" />
</g>
<g
   id="g6">
</g>
<g
   id="g8">
</g>
<g
   id="g10">
</g>
<g
   id="g12">
</g>
<g
   id="g14">
</g>
<g
   id="g16">
</g>
<g
   id="g18">
</g>
<g
   id="g20">
</g>
<g
   id="g22">
</g>
<g
   id="g24">
</g>
<g
   id="g26">
</g>
<g
   id="g28">
</g>
<g
   id="g30">
</g>
<g
   id="g32">
</g>
<g
   id="g34">
</g>
</svg>
